# Blender v2.63 (sub 0) OBJ File: 'tankFence5.blend'
# www.blender.org
mtllib tankFence5.mtl
o Plane
v 10.000000 -10.000000 0.000000
v -10.000000 -10.000000 0.000000
v 10.000000 10.000000 0.000000
v -10.000000 10.000000 0.000000
vn 0.000000 0.000000 1.000000
usemtl Plane
s off
f 3//1 4//1 2//1
f 1//1 3//1 2//1
o Player
v -1.562685 -2.427994 0.000000
v -1.562685 1.139500 0.000000
v 1.562685 1.139500 0.000000
v 1.562685 -2.427994 0.000000
v -1.562685 -2.427994 2.000000
v -1.562685 1.139500 2.000000
v 1.562685 1.139500 2.000000
v 1.562685 -2.427994 2.000000
v -0.781342 1.139500 0.500000
v 0.781342 1.139500 0.500000
v -0.781342 1.139500 1.500000
v 0.781342 1.139500 1.500000
v -0.781342 3.437026 0.500000
v 0.781342 3.437026 0.500000
v -0.781342 3.437026 1.500000
v 0.781342 3.437026 1.500000
vn -1.000000 0.000000 0.000000
vn -0.000000 1.000000 0.000000
vn 1.000000 0.000000 0.000000
vn -0.000000 -1.000000 0.000000
vn -0.000000 -0.000000 -1.000000
usemtl Player
s off
f 9//2 10//2 6//2
f 7//3 6//3 13//3
f 11//4 12//4 8//4
f 9//5 5//5 12//5
f 5//6 6//6 7//6
f 12//1 11//1 10//1
f 14//6 13//6 17//6
f 10//3 11//3 16//3
f 11//3 7//3 14//3
f 15//3 13//3 6//3
f 19//3 20//3 18//3
f 16//4 14//4 18//4
f 19//2 17//2 13//2
f 15//1 16//1 20//1
f 5//2 9//2 6//2
f 14//3 7//3 13//3
f 7//4 11//4 8//4
f 12//5 5//5 8//5
f 8//6 5//6 7//6
f 9//1 12//1 10//1
f 18//6 14//6 17//6
f 15//3 10//3 16//3
f 16//3 11//3 14//3
f 10//3 15//3 6//3
f 17//3 19//3 18//3
f 20//4 16//4 18//4
f 15//2 19//2 13//2
f 19//1 15//1 20//1
o Enemy
v 10.816487 8.585787 -0.003767
v 10.816488 11.414213 -0.003767
v 8.367024 10.000001 0.007534
v 10.817415 8.585787 0.197270
v 10.817416 11.414213 0.197270
v 8.367951 10.000001 0.208572
vn -0.004614 -0.000000 -0.999989
vn 0.004614 0.000000 0.999989
vn 0.999989 -0.000000 -0.004616
vn -0.499994 0.866026 0.002305
vn -0.499995 -0.866025 0.002308
vn -0.499994 0.866026 0.002308
vn -0.499995 -0.866025 0.002305
usemtl Enemy
s off
f 22//7 21//7 23//7
f 26//8 24//8 25//8
f 21//9 22//9 25//9
f 22//10 23//10 26//10
f 23//11 21//11 24//11
f 24//9 21//9 25//9
f 25//12 22//12 26//12
f 26//13 23//13 24//13
