# Blender v2.63 (sub 0) OBJ File: 'pointLight3.blend'
# www.blender.org
mtllib pointLight3.mtl
o Point
v 10.000000 10.000000 -1.000000
v 10.723600 9.474280 -0.447215
v 9.723615 9.149360 -0.447215
v 9.105575 10.000000 -0.447215
v 9.723615 10.850640 -0.447215
v 10.723600 10.525720 -0.447215
v 10.276385 9.149360 0.447215
v 9.276400 9.474280 0.447215
v 9.276400 10.525720 0.447215
v 10.276385 10.850640 0.447215
v 10.894425 10.000000 0.447215
v 10.000000 10.000000 1.000000
vn 0.187597 -0.577354 -0.794651
vn 0.607064 0.000000 -0.794653
vn -0.491122 -0.356829 -0.794652
vn -0.491122 0.356829 -0.794652
vn 0.187597 0.577354 -0.794651
vn 0.982246 0.000000 -0.187597
vn 0.303536 -0.934171 -0.187590
vn -0.794649 -0.577359 -0.187587
vn -0.794649 0.577359 -0.187587
vn 0.303536 0.934171 -0.187590
vn 0.794649 -0.577359 0.187587
vn -0.303536 -0.934171 0.187590
vn -0.982246 0.000000 0.187597
vn -0.303536 0.934171 0.187590
vn 0.794649 0.577359 0.187587
vn 0.491122 -0.356829 0.794652
vn -0.187597 -0.577354 0.794651
vn -0.607064 0.000000 0.794653
vn -0.187597 0.577354 0.794651
vn 0.491122 0.356829 0.794652
usemtl Point
s off
f 1//1 2//1 3//1
f 2//2 1//2 6//2
f 1//3 3//3 4//3
f 1//4 4//4 5//4
f 1//5 5//5 6//5
f 2//6 6//6 11//6
f 3//7 2//7 7//7
f 4//8 3//8 8//8
f 5//9 4//9 9//9
f 6//10 5//10 10//10
f 2//11 11//11 7//11
f 3//12 7//12 8//12
f 4//13 8//13 9//13
f 5//14 9//14 10//14
f 6//15 10//15 11//15
f 7//16 11//16 12//16
f 8//17 7//17 12//17
f 9//18 8//18 12//18
f 10//19 9//19 12//19
f 11//20 10//20 12//20
o Player
v -1.562685 -2.427994 0.000000
v -1.562685 1.139500 0.000000
v 1.562685 1.139500 0.000000
v 1.562685 -2.427994 0.000000
v -1.562685 -2.427994 2.000000
v -1.562685 1.139500 2.000000
v 1.562685 1.139500 2.000000
v 1.562685 -2.427994 2.000000
v -0.781342 1.139500 0.500000
v 0.781342 1.139500 0.500000
v -0.781342 1.139500 1.500000
v 0.781342 1.139500 1.500000
v -0.781342 3.437026 0.500000
v 0.781342 3.437026 0.500000
v -0.781342 3.437026 1.500000
v 0.781342 3.437026 1.500000
vn -1.000000 0.000000 0.000000
vn -0.000000 1.000000 0.000000
vn 1.000000 0.000000 0.000000
vn -0.000000 -1.000000 0.000000
vn -0.000000 -0.000000 -1.000000
vn -0.000000 0.000000 1.000000
usemtl Player
s off
f 17//21 18//21 14//21
f 15//22 14//22 21//22
f 19//23 20//23 16//23
f 17//24 13//24 20//24
f 13//25 14//25 15//25
f 20//26 19//26 18//26
f 22//25 21//25 25//25
f 18//22 19//22 24//22
f 19//22 15//22 22//22
f 23//22 21//22 14//22
f 27//22 28//22 26//22
f 24//23 22//23 26//23
f 27//21 25//21 21//21
f 23//26 24//26 28//26
f 13//21 17//21 14//21
f 22//22 15//22 21//22
f 15//23 19//23 16//23
f 20//24 13//24 16//24
f 16//25 13//25 15//25
f 17//26 20//26 18//26
f 26//25 22//25 25//25
f 23//22 18//22 24//22
f 24//22 19//22 22//22
f 18//22 23//22 14//22
f 25//22 27//22 26//22
f 28//23 24//23 26//23
f 23//21 27//21 21//21
f 27//26 23//26 28//26
